<?xml version="1.0" standalone="no"?>
<!DOCTYPE svg PUBLIC "-//W3C//DTD SVG 20010904//EN"
 "http://www.w3.org/TR/2001/REC-SVG-20010904/DTD/svg10.dtd">
<svg version="1.0" xmlns="http://www.w3.org/2000/svg"
 width="754.000000pt" height="331.000000pt" viewBox="0 0 754.000000 331.000000"
 preserveAspectRatio="xMidYMid meet">

<g transform="translate(0.000000,331.000000) scale(0.100000,-0.100000)"
fill="#000000" stroke="none">
<path d="M1930 3230 c-19 -5 -100 -9 -180 -8 -165 1 -301 -23 -376 -67 -23
-14 -49 -25 -57 -25 -29 0 -169 -104 -199 -148 -48 -70 -117 -216 -170 -362
-28 -74 -58 -158 -69 -187 -10 -28 -23 -93 -29 -144 -6 -51 -22 -131 -37 -178
-35 -117 -57 -206 -82 -336 -12 -60 -31 -148 -42 -195 -17 -67 -22 -127 -26
-281 -5 -221 4 -270 68 -349 43 -54 298 -250 406 -314 35 -21 92 -69 135 -115
40 -43 101 -102 135 -131 46 -37 73 -70 99 -120 47 -90 131 -162 223 -190 119
-37 233 -45 481 -32 124 7 279 12 345 12 77 0 129 5 145 13 20 10 33 37 67
137 47 137 53 195 25 230 -16 20 -31 23 -162 30 -80 5 -185 14 -235 19 -49 6
-167 14 -262 17 -119 5 -173 11 -173 19 0 6 18 29 40 50 26 25 48 61 62 99 35
94 80 143 194 206 94 52 102 55 169 54 55 0 85 -7 140 -31 39 -17 108 -47 155
-67 143 -62 190 -85 320 -157 144 -79 261 -122 375 -138 44 -7 126 -22 182
-33 93 -20 112 -21 217 -10 105 10 149 22 473 127 197 64 399 132 448 151 50
19 150 48 223 64 73 16 164 43 202 60 90 39 120 38 205 -9 88 -49 110 -72 101
-106 -5 -21 -22 -33 -74 -57 -37 -16 -103 -47 -147 -67 -96 -45 -140 -57 -265
-71 -52 -5 -140 -21 -195 -35 -55 -13 -115 -25 -133 -25 -50 0 -100 -25 -107
-53 -4 -13 3 -60 14 -104 12 -45 21 -110 22 -145 0 -34 6 -79 12 -98 12 -33
14 -35 57 -34 25 1 101 7 170 13 69 7 179 16 245 21 149 10 257 32 357 70 62
24 93 30 155 30 52 0 90 6 115 18 62 28 235 224 301 338 69 122 73 133 91 242
8 49 25 110 39 138 15 30 28 75 32 118 8 79 -8 342 -35 596 -10 96 -21 212
-24 256 -3 45 -12 99 -20 120 -10 27 -16 90 -19 199 -3 131 -8 173 -26 230
-47 145 -171 406 -203 427 -53 33 -156 69 -227 80 -117 17 -279 62 -348 97
-34 17 -73 31 -85 31 -16 0 -63 -41 -158 -138 -74 -76 -150 -147 -167 -157
-25 -14 -34 -28 -38 -55 -3 -19 -12 -46 -20 -60 -52 -94 -70 -120 -81 -120 -6
0 -60 20 -118 45 -142 61 -236 79 -416 79 -114 0 -166 -5 -245 -23 -71 -16
-158 -25 -299 -32 l-200 -9 -160 -55 c-187 -65 -211 -78 -267 -148 -53 -65
-77 -87 -97 -87 -13 0 -14 15 -9 108 3 59 10 120 16 135 6 16 11 70 11 121 0
111 17 180 69 283 77 154 62 206 -60 217 -35 3 -140 5 -234 4 -93 -1 -296 1
-450 4 -160 4 -295 3 -315 -2z m700 -36 c179 -4 335 -11 348 -15 32 -12 29
-56 -12 -137 -55 -108 -76 -192 -76 -296 0 -50 -7 -116 -15 -146 -20 -73 -20
-253 -1 -269 26 -22 65 0 133 76 78 87 100 100 288 163 l140 48 215 11 c138 7
247 18 305 31 161 35 440 18 565 -35 186 -78 175 -71 172 -106 -3 -22 0 -30
10 -27 7 3 14 14 16 26 2 16 10 22 27 22 30 0 41 16 18 28 -15 9 -12 17 25 76
23 37 45 84 48 105 5 30 14 42 51 65 24 16 75 65 112 110 59 71 128 136 169
160 7 4 35 -5 66 -23 30 -16 90 -39 135 -51 44 -11 92 -25 105 -30 14 -5 62
-14 106 -19 85 -11 216 -59 244 -90 25 -27 131 -267 168 -379 31 -92 32 -105
33 -257 1 -114 5 -167 15 -185 8 -14 17 -72 21 -130 4 -58 15 -161 23 -230 23
-176 35 -352 36 -519 0 -137 -1 -146 -26 -188 -17 -29 -31 -79 -43 -151 -27
-157 -90 -268 -255 -445 -111 -119 -126 -127 -239 -127 -51 0 -87 -7 -146 -30
-44 -17 -105 -35 -136 -40 -31 -5 -65 -12 -76 -15 -10 -3 -64 -8 -121 -9 -131
-4 -329 -23 -391 -37 -31 -7 -52 -8 -58 -2 -5 5 -14 59 -19 119 -5 60 -15 132
-21 160 -17 71 -11 80 58 88 32 4 103 19 158 32 55 14 145 29 200 34 110 10
176 27 231 59 20 12 72 35 115 52 94 36 149 83 149 125 0 43 -20 66 -101 114
-96 59 -146 63 -249 22 -41 -16 -138 -44 -215 -61 -77 -17 -168 -45 -203 -61
-34 -16 -115 -43 -180 -61 -64 -17 -137 -39 -162 -50 -25 -10 -81 -30 -125
-43 -44 -14 -141 -46 -215 -71 -126 -44 -144 -47 -265 -52 -103 -5 -142 -2
-186 10 -30 9 -96 21 -147 27 -104 12 -250 60 -352 117 -159 89 -243 131 -302
153 -34 13 -99 40 -143 61 -176 85 -262 87 -404 14 -112 -58 -180 -127 -213
-217 -15 -43 -37 -77 -70 -110 -26 -27 -48 -57 -48 -68 0 -28 37 -44 100 -42
64 2 382 -25 455 -38 28 -5 100 -9 162 -9 133 -1 149 -9 139 -76 -11 -68 -72
-238 -92 -253 -14 -10 -50 -13 -149 -11 -71 1 -240 -1 -375 -6 -346 -11 -440
6 -542 96 -39 34 -70 73 -94 120 -27 52 -52 82 -94 114 -31 25 -89 81 -129
125 -47 52 -96 94 -139 119 -37 21 -116 78 -175 125 -60 47 -113 86 -117 86
-23 0 -129 114 -151 162 -23 51 -24 61 -22 246 3 166 6 207 29 300 14 59 34
160 45 224 10 65 32 159 48 210 42 133 49 160 65 280 9 64 26 133 42 170 15
35 39 99 54 143 37 107 114 279 152 338 36 56 133 133 202 159 27 11 63 26 80
35 63 33 194 53 345 54 81 0 164 4 186 9 22 5 112 7 200 5 88 -3 306 -8 485
-11z"/>
<path d="M4456 1961 c-3 -5 -3 -16 0 -25 5 -14 -8 -16 -107 -16 -178 0 -268
-33 -368 -133 l-53 -55 -5 -123 c-5 -119 -4 -125 18 -156 39 -51 82 -111 112
-154 49 -70 77 -81 190 -75 65 3 112 12 142 25 91 40 226 146 245 192 20 48 8
262 -19 329 -38 96 -138 219 -155 191z m94 -153 c22 -46 45 -110 50 -143 11
-67 13 -185 4 -209 -8 -22 -129 -118 -194 -154 -59 -33 -196 -59 -249 -47 -32
7 -77 51 -114 112 -15 23 -41 58 -59 79 l-33 38 1 113 1 114 49 50 c99 101
175 127 371 128 l132 1 41 -82z"/>
<path d="M2895 1913 c-3 -14 -32 -53 -64 -87 -32 -34 -67 -74 -78 -91 -34 -49
-53 -131 -53 -227 l0 -88 88 -94 c81 -88 158 -157 221 -198 44 -30 119 -24
177 14 48 31 162 142 190 184 33 49 47 255 21 315 -8 19 -34 53 -57 76 -43 42
-212 153 -266 173 -15 6 -32 17 -38 24 -6 8 -39 16 -73 19 -59 5 -62 4 -68
-20z m125 -42 c136 -43 338 -193 356 -266 8 -33 -3 -196 -16 -230 -5 -13 -17
-32 -27 -42 -10 -10 -31 -35 -48 -55 -16 -20 -59 -59 -94 -87 -55 -44 -70 -51
-107 -51 -41 0 -51 6 -132 79 -48 43 -117 110 -155 149 l-68 71 7 98 c8 122
25 163 102 246 33 35 65 74 71 86 14 26 32 26 111 2z"/>
</g>
</svg>
