<?xml version="1.0" standalone="no"?>
<!DOCTYPE svg PUBLIC "-//W3C//DTD SVG 20010904//EN"
 "http://www.w3.org/TR/2001/REC-SVG-20010904/DTD/svg10.dtd">
<svg version="1.0" xmlns="http://www.w3.org/2000/svg"
 width="754.000000pt" height="331.000000pt" viewBox="0 0 754.000000 331.000000"
 preserveAspectRatio="xMidYMid meet">

<g transform="translate(0.000000,331.000000) scale(0.100000,-0.100000)"
fill="#000000" stroke="none">
<path d="M1925 3229 c-23 -6 -84 -8 -146 -5 -127 7 -303 -19 -383 -58 -28 -13
-71 -33 -96 -43 -69 -30 -156 -100 -190 -154 -66 -101 -120 -229 -231 -535
-10 -28 -23 -93 -30 -145 -6 -52 -27 -146 -46 -209 -19 -63 -47 -180 -63 -260
-16 -80 -39 -188 -51 -240 -19 -77 -24 -131 -27 -286 -3 -170 -1 -197 16 -247
26 -73 70 -127 162 -197 41 -31 111 -84 155 -117 44 -33 108 -77 142 -97 37
-21 93 -70 140 -120 43 -46 103 -105 134 -130 38 -31 67 -68 94 -116 50 -92
133 -162 224 -190 119 -37 233 -45 481 -32 124 7 279 12 345 12 77 0 129 5
145 13 20 10 33 37 67 137 43 126 52 185 33 220 -14 25 -70 40 -155 40 -38 0
-131 7 -205 15 -74 8 -213 17 -307 21 -119 5 -173 11 -173 19 0 6 18 29 40 50
24 23 48 61 60 93 43 115 104 173 257 244 56 26 72 30 121 25 31 -3 89 -19
127 -35 301 -128 324 -139 478 -224 137 -76 262 -121 379 -138 40 -6 119 -21
175 -32 93 -20 112 -21 217 -10 105 10 149 22 473 127 197 64 399 132 448 151
50 19 150 48 223 64 73 16 165 44 204 61 89 39 129 36 214 -15 81 -48 98 -68
90 -101 -5 -20 -22 -33 -74 -57 -37 -17 -103 -47 -147 -68 -93 -45 -136 -56
-265 -70 -52 -5 -140 -21 -195 -35 -55 -13 -115 -25 -133 -25 -50 0 -100 -25
-107 -53 -4 -13 3 -60 14 -104 12 -45 21 -110 22 -145 0 -34 6 -79 12 -98 12
-33 14 -35 57 -34 25 1 101 7 170 13 69 7 179 16 245 21 149 10 272 34 350 68
46 19 85 27 166 32 72 5 113 12 129 23 13 9 69 65 125 125 72 78 118 139 158
208 69 122 73 133 91 242 8 49 25 110 39 138 15 30 28 75 32 118 8 78 -7 337
-35 601 -10 99 -21 215 -24 257 -3 42 -12 94 -20 115 -10 26 -16 90 -19 198
-4 179 -12 214 -94 405 -63 147 -111 236 -138 254 -49 32 -154 68 -240 81
-132 21 -261 58 -332 93 -34 18 -73 32 -85 32 -16 0 -63 -41 -158 -138 -74
-76 -150 -147 -167 -157 -25 -14 -34 -28 -38 -55 -3 -19 -12 -46 -20 -60 -52
-94 -70 -120 -81 -120 -6 0 -60 20 -118 45 -142 61 -236 79 -416 79 -113 0
-167 -5 -245 -23 -70 -15 -160 -25 -300 -32 l-200 -9 -159 -56 c-187 -64 -211
-77 -267 -147 -53 -65 -77 -87 -97 -87 -13 0 -14 15 -9 108 3 59 10 120 16
135 6 16 11 70 11 121 0 111 17 180 69 283 75 152 62 205 -55 217 -32 3 -144
5 -249 4 -104 -1 -309 1 -455 5 -172 4 -279 2 -305 -4z m1095 -1358 c136 -43
338 -193 356 -266 8 -32 -3 -196 -16 -229 -5 -13 -27 -43 -49 -67 -22 -24 -41
-47 -41 -50 0 -4 -33 -32 -73 -63 -62 -47 -80 -56 -115 -56 -39 0 -50 7 -130
79 -48 43 -117 110 -155 149 l-68 71 7 98 c8 122 25 163 102 246 33 35 65 74
71 86 14 26 32 26 111 2z m1523 -63 c45 -91 56 -139 58 -258 l2 -93 -59 -53
c-32 -30 -88 -70 -122 -90 -54 -30 -79 -38 -162 -47 -114 -13 -130 -7 -183 70
-18 26 -52 69 -76 96 l-43 50 3 118 c4 115 5 118 34 149 38 41 95 78 165 107
49 20 72 23 201 23 l147 0 35 -72z"/>
</g>
</svg>
